<svg width="1166" height="555" viewBox="0 0 1166 555" fill="none" xmlns="http://www.w3.org/2000/svg">
<g clip-path="url(#clip0_1_7)">
<path d="M1167 0H0V555H1167V0Z" fill="#F8F8F8"/>
<path opacity="0.34" d="M545.881 320.897L578.923 314.567L623.864 289.498C628.578 286.869 628.28 280.014 623.361 277.797L600.295 267.445L545.881 320.897Z" fill="#ABABAB"/>
<path d="M590.616 164.905L590.433 164.79L589.998 267.148C589.998 267.582 589.769 267.993 589.38 268.199L522.976 306.134C522.152 306.591 521.58 200.326 521.58 200.326C521.58 199.892 521.809 199.481 522.198 199.275L588.328 161.523C588.671 161.34 589.152 161.157 589.518 161.317L591.714 162.46L590.616 164.905Z" fill="#0BAF1B"/>
<path d="M524.143 200.395L590.547 162.46C591.371 162.003 592.378 162.574 592.378 163.534L591.966 268.29C591.966 268.725 591.737 269.136 591.348 269.342L524.944 307.277C524.623 306.729 524.051 306.02 523.113 306.203L523.548 201.469C523.525 201.012 523.777 200.624 524.143 200.395Z" fill="#00C213"/>
<path d="M609.471 175.714C597.435 173.452 594.644 172.195 591.028 166.687L528.285 202.566C528.811 206.702 533.204 212.21 548.192 211.593L609.471 175.714Z" fill="#FFFAFA"/>
<path d="M612.789 176.148L609.677 174.434C609.311 174.114 608.67 174.183 608.19 174.457L542.54 211.936C542.151 212.141 541.922 212.553 541.922 212.987L541.488 317.721C541.488 318.658 542.494 319.252 543.318 318.795L609.723 280.859C610.112 280.654 610.341 280.242 610.341 279.808L610.752 179.325L612.514 179.142L612.789 176.148Z" fill="#00C213"/>
<path d="M544.897 214.564C532.564 215.432 525.699 208.325 521.649 199.915L522.679 307.414C522.884 319.983 542.998 322.863 544.897 321.011V214.564Z" fill="#00C213"/>
<path d="M545.332 214.152L611.736 176.217C612.56 175.76 613.567 176.331 613.567 177.291L613.132 282.025C613.132 282.459 612.903 282.87 612.514 283.076L545.881 320.874C545.057 321.331 544.279 320.874 544.279 319.937L544.714 215.204C544.714 214.769 544.943 214.381 545.332 214.152Z" fill="#01E45C"/>
<path opacity="0.34" d="M599.288 345.784L631.346 339.293L671.963 314.384C676.219 311.779 674.663 305.06 669.308 302.958L644.229 293.063L599.288 345.784Z" fill="#ABABAB"/>
<path d="M615.809 192.899L615.603 192.785L633.841 292.834C633.909 293.268 633.749 293.657 633.406 293.862L573.546 331.546C572.813 332.004 552.837 228.138 552.837 228.138C552.768 227.704 552.929 227.315 553.272 227.11L612.858 189.586C613.155 189.403 613.613 189.22 614.002 189.38L616.427 190.477L615.809 192.899Z" fill="#7C64BA"/>
<path d="M555.469 228.23L615.329 190.545C616.061 190.088 617.205 190.66 617.365 191.574L636.037 293.954C636.106 294.388 635.946 294.777 635.602 294.982L575.742 332.666C575.308 332.118 574.621 331.455 573.706 331.638L555.034 229.258C554.965 228.824 555.125 228.435 555.469 228.23Z" fill="#504078"/>
<path d="M636.747 203.297C624.253 201.195 621.187 199.984 616.565 194.659L560.022 230.309C561.304 234.354 566.727 239.702 581.692 238.947L636.747 203.297Z" fill="#FFFAFA"/>
<path d="M640.156 203.686L636.724 202.04C636.289 201.743 635.671 201.789 635.236 202.063L576.063 239.336C575.719 239.542 575.559 239.953 575.628 240.364L594.3 342.744C594.46 343.658 595.604 344.23 596.336 343.773L656.197 306.089C656.54 305.883 656.7 305.471 656.631 305.06L638.715 206.817L640.454 206.611L640.156 203.686Z" fill="#504078"/>
<path d="M578.923 241.873C566.681 242.832 558.489 235.954 552.883 227.772L573.523 332.849C576.017 345.144 596.771 347.772 598.35 345.944L578.923 241.873Z" fill="#8B73CB"/>
<path d="M579.266 241.461L639.126 203.777C639.859 203.32 641.003 203.891 641.163 204.806L659.835 307.185C659.904 307.62 659.743 308.008 659.4 308.214L599.288 345.784C598.556 346.241 597.664 345.807 597.503 344.892L578.832 242.512C578.763 242.078 578.923 241.667 579.266 241.461Z" fill="#7C64BA"/>
<path d="M581.532 245.186L599.517 341.556" stroke="#433878" stroke-width="2.576" stroke-miterlimit="10" stroke-linecap="round" stroke-linejoin="round"/>
<path d="M631.141 247.951L607.48 261C603.087 263.423 598.19 261.617 596.611 256.978L596.039 255.31C594.46 250.671 596.771 244.889 601.165 242.444L624.825 229.395C629.219 226.973 634.115 228.778 635.694 233.417L636.266 235.085C637.845 239.724 635.534 245.506 631.141 247.951Z" stroke="#FFFAFA" stroke-width="3.7942" stroke-miterlimit="10"/>
<path d="M521.923 255.676C527.415 270.05 536.477 278.688 544.257 282.825V269.364C536.316 264.588 528.857 254.464 521.923 238.993V255.676Z" fill="#FFFAFA"/>
<path d="M637.754 360.432L637.822 351.017L645.465 357.461L647.113 353.691L838.752 243.198C841.063 241.873 845.64 242.033 848.317 243.564L931.334 291.143V289.818L943.943 295.942L945.704 295.234L945.476 301.038C945.293 302.295 944.789 302.821 944.011 303.278L744.591 418.569C742.28 419.895 738.207 419.895 735.553 418.341L639.996 363.312C638.532 362.466 637.799 361.438 637.799 360.409L637.754 360.432Z" fill="#2B2B2B"/>
<path d="M744.661 410.822L944.08 295.828C946.391 294.502 946.094 292.149 943.439 290.617L847.883 235.52C845.228 233.988 841.155 233.806 838.844 235.154L639.425 350.149C637.114 351.474 637.411 353.828 640.065 355.359L735.622 410.457C738.299 411.988 742.35 412.148 744.661 410.822Z" fill="#FFFAFA"/>
<path d="M617.755 213.375C615.101 214.906 613.316 218.426 613.773 221.237L634.459 348.983C634.917 351.794 637.434 352.845 640.088 351.314L835.984 238.353C838.638 236.822 840.423 233.303 839.966 230.492L819.28 102.746C818.822 99.9347 816.305 98.8835 813.651 100.415L617.755 213.375Z" fill="#FFFAFA"/>
<path d="M605.902 202.109C605.902 202.04 605.902 201.972 605.902 201.88V201.858V201.835C605.902 201.789 605.902 201.743 605.925 201.675C605.925 201.606 605.948 201.538 605.948 201.469C605.948 201.446 605.948 201.401 605.971 201.378C605.971 201.355 605.971 201.355 605.971 201.332C605.971 201.309 605.971 201.286 605.971 201.263C605.971 201.195 605.993 201.126 606.016 201.058C606.039 200.989 606.039 200.921 606.062 200.852C606.085 200.783 606.085 200.715 606.108 200.646C606.131 200.578 606.154 200.509 606.154 200.441C606.154 200.418 606.154 200.395 606.177 200.395C606.177 200.372 606.176 200.372 606.199 200.349C606.199 200.304 606.222 200.281 606.222 200.235C606.245 200.166 606.268 200.098 606.291 200.029C606.314 199.984 606.337 199.938 606.337 199.869V199.847V199.824C606.36 199.755 606.382 199.687 606.405 199.641C606.428 199.572 606.451 199.527 606.474 199.458C606.474 199.435 606.497 199.412 606.497 199.389C606.497 199.389 606.497 199.367 606.52 199.367C606.52 199.344 606.543 199.321 606.543 199.298C606.565 199.229 606.588 199.161 606.634 199.115C606.68 199.07 606.703 198.978 606.726 198.932V198.91C606.726 198.91 606.726 198.887 606.749 198.887C606.771 198.818 606.817 198.75 606.84 198.681C606.863 198.612 606.909 198.567 606.932 198.498C606.954 198.452 606.977 198.407 607 198.384C607 198.361 607.023 198.338 607.023 198.338C607.092 198.247 607.138 198.155 607.206 198.041C607.229 198.018 607.252 197.973 607.275 197.95C607.275 197.95 607.275 197.95 607.275 197.927C607.343 197.813 607.435 197.698 607.527 197.584C607.549 197.561 607.549 197.561 607.572 197.538C607.572 197.516 607.595 197.516 607.595 197.493C607.618 197.447 607.664 197.424 607.687 197.378C607.732 197.31 607.778 197.241 607.847 197.196C607.87 197.173 607.893 197.15 607.916 197.127C607.916 197.104 607.938 197.104 607.938 197.081C607.961 197.058 607.984 197.036 608.007 197.013C608.053 196.944 608.121 196.899 608.167 196.83C608.213 196.784 608.259 196.739 608.282 196.693L608.305 196.67L608.327 196.647C608.373 196.579 608.442 196.533 608.51 196.487C608.579 196.419 608.625 196.373 608.694 196.327C608.762 196.281 608.808 196.213 608.877 196.167C608.945 196.122 609.014 196.053 609.06 196.007L609.083 195.984L609.105 195.962C609.151 195.916 609.197 195.893 609.243 195.847C609.311 195.802 609.38 195.756 609.449 195.71C609.472 195.687 609.494 195.687 609.494 195.664C609.494 195.664 609.517 195.664 609.517 195.642C609.563 195.619 609.586 195.596 609.632 195.573C609.7 195.527 609.769 195.482 609.838 195.459C609.861 195.459 614.574 192.739 614.574 192.716L620.386 196.236C620.386 196.236 615.398 198.841 615.329 198.887C615.261 198.932 615.192 198.978 615.123 199.024C615.055 199.07 614.986 199.115 614.917 199.161C614.849 199.207 614.78 199.252 614.734 199.298C614.712 199.321 614.689 199.344 614.666 199.367C614.574 199.458 614.46 199.527 614.368 199.618C614.277 199.709 614.162 199.801 614.071 199.892C614.048 199.915 614.048 199.915 614.025 199.938C613.934 200.029 613.842 200.121 613.75 200.212C613.728 200.235 613.728 200.235 613.705 200.258C613.613 200.349 613.545 200.441 613.453 200.555C613.43 200.578 613.43 200.601 613.407 200.601C613.339 200.692 613.247 200.806 613.178 200.898C613.133 200.943 613.11 201.012 613.064 201.058C613.018 201.126 612.973 201.195 612.927 201.263C612.881 201.332 612.835 201.423 612.789 201.492C612.767 201.538 612.721 201.583 612.698 201.652C612.675 201.698 612.652 201.743 612.629 201.789C612.584 201.88 612.538 201.949 612.492 202.04C612.469 202.063 612.469 202.086 612.446 202.109C612.378 202.223 612.332 202.337 612.286 202.452C612.286 202.452 612.286 202.475 612.263 202.475C612.217 202.589 612.149 202.726 612.103 202.84C612.103 202.863 612.103 202.863 612.08 202.886C612.034 203 611.989 203.137 611.943 203.252C611.943 203.274 611.943 203.274 611.92 203.297C611.874 203.412 611.828 203.549 611.805 203.663C611.805 203.686 611.806 203.709 611.783 203.709C611.737 203.823 611.714 203.96 611.691 204.074C611.691 204.097 611.691 204.12 611.668 204.12C611.645 204.234 611.622 204.371 611.6 204.486C611.6 204.508 611.6 204.531 611.6 204.531C611.577 204.646 611.554 204.783 611.554 204.897C611.554 204.92 611.554 204.92 611.554 204.943C611.531 205.057 611.531 205.194 611.531 205.308C611.531 205.377 611.531 205.423 611.531 205.491C611.531 205.56 611.531 205.628 611.531 205.697C611.531 205.765 611.531 205.857 611.531 205.925C611.531 205.994 611.531 206.085 611.554 206.154C611.554 206.245 611.577 206.314 611.577 206.405C611.577 206.474 611.6 206.519 611.6 206.588C611.6 206.588 611.622 206.702 611.645 206.931L612.149 210.085C612.446 209.925 613.064 209.559 613.087 209.536L618.991 212.735C618.991 212.735 617.572 213.558 617.503 213.604C617.435 213.65 617.366 213.695 617.297 213.741C617.229 213.787 617.16 213.832 617.091 213.878C617.023 213.924 616.954 213.969 616.908 214.015C616.885 214.038 616.862 214.061 616.84 214.084C616.748 214.175 616.634 214.244 616.542 214.335C616.451 214.427 616.336 214.518 616.245 214.609C616.222 214.632 616.222 214.632 616.199 214.655C616.107 214.746 616.016 214.838 615.924 214.929C615.901 214.952 615.901 214.952 615.879 214.975C615.787 215.066 615.718 215.158 615.627 215.272C615.604 215.295 615.604 215.318 615.581 215.318C615.512 215.409 615.421 215.523 615.352 215.615C615.306 215.661 615.284 215.729 615.238 215.775C615.192 215.843 615.146 215.912 615.101 215.981C615.055 216.049 615.009 216.14 614.963 216.209C614.94 216.255 614.895 216.3 614.872 216.369C614.849 216.415 614.826 216.46 614.803 216.506C614.757 216.598 614.712 216.666 614.666 216.757C614.643 216.78 614.643 216.803 614.62 216.826C614.551 216.94 614.506 217.055 614.46 217.169C614.46 217.169 614.46 217.192 614.437 217.192C614.391 217.306 614.323 217.443 614.277 217.557C614.277 217.58 614.277 217.58 614.254 217.603C614.208 217.717 614.162 217.854 614.117 217.969C614.117 217.992 614.117 217.992 614.094 218.014C614.048 218.129 614.002 218.266 613.979 218.38C613.979 218.403 613.979 218.426 613.956 218.426C613.911 218.54 613.888 218.677 613.865 218.791C613.865 218.814 613.865 218.837 613.842 218.837C613.819 218.951 613.796 219.088 613.773 219.203C613.773 219.226 613.773 219.248 613.773 219.248C613.75 219.363 613.728 219.5 613.728 219.614C613.728 219.637 613.728 219.637 613.728 219.66C613.728 219.705 613.728 219.751 613.705 219.82L632.01 332.826C632.102 333.42 634.436 337.26 633.91 336.94L632.262 335.546L634.207 347.566C634.299 348.16 636.633 352 636.106 351.68L630.637 346.904C629.448 345.898 628.67 344.527 628.418 342.996L608.396 219.454C608.305 218.86 608.144 217.946 608.144 217.946C608.144 217.877 608.122 217.832 608.122 217.763C608.122 217.717 608.121 217.649 608.099 217.603V217.58C608.099 217.557 608.099 217.534 608.099 217.534C608.099 217.466 608.099 217.375 608.076 217.306C608.076 217.237 608.076 217.192 608.076 217.123V217.1V217.077C608.076 217.009 608.076 216.94 608.076 216.872C608.076 216.803 608.076 216.735 608.076 216.643V216.62V216.598C608.076 216.552 608.076 216.506 608.076 216.46L606.177 204.737C606.085 204.143 605.925 203.229 605.925 203.229C605.925 203.16 605.902 203.114 605.902 203.046C605.902 203 605.902 202.932 605.879 202.886V202.863C605.879 202.84 605.879 202.817 605.879 202.817C605.879 202.749 605.879 202.657 605.856 202.589C605.856 202.52 605.856 202.475 605.856 202.406V202.383V202.36C605.902 202.269 605.902 202.177 605.902 202.109Z" fill="#FFFAFA"/>
<path d="M610.982 196.03L615.261 198.498C615.49 198.635 615.764 198.635 615.97 198.498L810.447 86.3602L811.523 85.7432C811.568 85.7204 811.637 85.6746 811.683 85.6518C811.751 85.6061 811.82 85.5832 811.889 85.5375C812.049 85.4461 812.209 85.3776 812.369 85.3319C812.392 85.3319 812.392 85.3319 812.415 85.309C812.575 85.2633 812.712 85.1947 812.873 85.1719C812.896 85.1719 812.896 85.1719 812.918 85.1719C813.079 85.1262 813.216 85.1033 813.376 85.0805H813.399C813.536 85.0576 813.674 85.0576 813.811 85.0576C813.834 85.0576 813.857 85.0576 813.88 85.0576C814.017 85.0576 814.154 85.0576 814.269 85.0805C814.314 85.0805 814.337 85.0805 814.383 85.1033C814.474 85.1262 814.566 85.1262 814.657 85.149C814.726 85.1719 814.818 85.1947 814.886 85.2176C814.955 85.2404 815.001 85.2633 815.069 85.2862C815.23 85.3547 815.39 85.4233 815.527 85.4918L809.829 82.1782C809.692 82.0868 809.532 82.0182 809.372 81.9725C809.349 81.9725 809.349 81.9497 809.326 81.9497H809.303C809.189 81.904 809.051 81.8811 808.914 81.8354H808.891C808.845 81.8354 808.823 81.8354 808.777 81.8125C808.708 81.8125 808.639 81.7897 808.571 81.7897C808.548 81.7897 808.548 81.7897 808.525 81.7897C808.479 81.7897 808.434 81.7897 808.388 81.7897C808.342 81.7897 808.296 81.7897 808.273 81.7897H808.25C808.159 81.7897 808.067 81.7897 807.976 81.7897H807.953C807.884 81.7897 807.793 81.8125 807.724 81.8125C807.701 81.8125 807.678 81.8125 807.656 81.8125C807.633 81.8125 807.61 81.8126 807.564 81.8354C807.541 81.8354 807.495 81.8354 807.472 81.8583C807.404 81.8811 807.335 81.8811 807.289 81.904H807.266C807.266 81.904 807.267 81.904 807.244 81.904C807.175 81.9268 807.083 81.9497 807.015 81.9725C806.946 81.9954 806.877 82.0182 806.809 82.0411C806.74 82.0639 806.672 82.0868 806.603 82.1096C806.534 82.1325 806.466 82.1553 806.397 82.201C806.328 82.2239 806.26 82.2696 806.191 82.2925C806.122 82.3153 806.054 82.361 805.985 82.4067C805.962 82.4296 805.688 82.5667 805.482 82.7038L805.184 82.8638C805.184 82.8638 805.184 82.8638 805.161 82.8638L611.005 194.819C610.501 195.048 610.501 195.733 610.982 196.03Z" fill="#EDE1E1"/>
<path d="M615.604 198.498C612.95 200.029 611.165 203.549 611.622 206.36L632.308 334.106C632.766 336.917 635.283 337.968 637.937 336.437L833.833 223.476C836.487 221.945 838.272 218.426 837.814 215.615L817.129 87.8685C816.671 85.0576 814.154 84.0064 811.5 85.5375L615.604 198.498Z" fill="#2B2B2B"/>
<path d="M622.606 206.725C620.089 208.142 618.372 211.227 618.784 213.581L637.502 320.76C637.914 323.114 640.294 323.891 642.811 322.451L828.616 217.329C831.133 215.912 832.849 212.827 832.437 210.473L813.719 103.294C813.307 100.94 810.928 100.163 808.411 101.603L622.606 206.725Z" fill="#545454"/>
<path d="M840.995 234.925L639.974 350.788" stroke="#463757" stroke-width="2.4286" stroke-miterlimit="10" stroke-linecap="round" stroke-linejoin="round"/>
<path d="M834.039 263.217C834.337 263.377 834.932 263.308 835.366 263.057L847.585 256.018C848.02 255.767 848.157 255.424 847.86 255.241L839.76 250.58C839.462 250.42 838.867 250.488 838.433 250.739L826.213 257.778C825.779 258.03 825.641 258.372 825.939 258.555L834.039 263.217Z" fill="#DFDFDF"/>
<path d="M819.852 284.241C820.149 284.401 820.744 284.356 821.179 284.081L833.398 277.043C833.833 276.792 833.947 276.449 833.65 276.266L825.549 271.604C825.252 271.444 824.657 271.513 824.222 271.764L812.003 278.803C811.545 279.054 811.431 279.397 811.728 279.557L819.852 284.241Z" fill="#DFDFDF"/>
<path d="M827.037 292.994C827.334 293.154 827.929 293.085 828.364 292.834L840.583 285.795C841.018 285.544 841.155 285.201 840.858 285.041L832.757 280.357C832.46 280.197 831.865 280.265 831.43 280.517L819.211 287.555C818.776 287.807 818.662 288.149 818.936 288.309L827.037 292.994Z" fill="#DFDFDF"/>
<path d="M846.418 294.662C846.716 294.822 847.31 294.754 847.745 294.502L859.964 287.464C860.399 287.212 860.513 286.87 860.239 286.71L852.139 282.048C851.841 281.888 851.246 281.956 850.811 282.208L838.592 289.246C838.158 289.498 838.043 289.84 838.318 290L846.418 294.662Z" fill="#DFDFDF"/>
<path d="M880.055 289.772C880.352 289.932 880.947 289.863 881.382 289.612L893.601 282.573C894.036 282.322 894.173 281.979 893.876 281.796L884.357 276.312C884.082 276.152 883.464 276.22 883.03 276.472L870.81 283.51C870.376 283.762 870.261 284.104 870.536 284.264L880.055 289.772Z" fill="#DFDFDF"/>
<path d="M858.981 301.907C859.278 302.067 859.988 301.952 860.56 301.61L876.577 292.377C877.149 292.057 877.378 291.646 877.103 291.463L867.584 285.978C867.31 285.818 866.578 285.955 866.006 286.275L849.988 295.508C849.416 295.851 849.187 296.262 849.462 296.422L858.981 301.907Z" fill="#DFDFDF"/>
<path d="M753.791 362.626C754.042 362.763 754.591 362.672 755.026 362.421L767.245 355.382C767.68 355.131 767.863 354.811 767.612 354.673L764.088 352.64C763.836 352.502 763.287 352.594 762.829 352.845L750.61 359.884C750.175 360.135 750.015 360.455 750.244 360.592L753.791 362.626Z" fill="#DFDFDF"/>
<path d="M737.452 372.293C737.704 372.43 738.253 372.338 738.687 372.087L750.907 365.049C751.341 364.797 751.524 364.477 751.273 364.34L747.749 362.306C747.497 362.169 746.948 362.261 746.49 362.512L734.271 369.55C733.836 369.802 733.676 370.122 733.905 370.259L737.452 372.293Z" fill="#DFDFDF"/>
<path d="M720.13 382.051C720.359 382.188 720.908 382.097 721.366 381.845L733.585 374.807C734.02 374.555 734.203 374.235 733.974 374.098L730.587 372.133C730.359 371.996 729.786 372.11 729.352 372.361L717.132 379.4C716.698 379.651 716.515 379.971 716.766 380.108L720.13 382.051Z" fill="#DFDFDF"/>
<path d="M730.794 368.568C731.022 368.705 731.572 368.614 732.029 368.362L744.248 361.324C744.683 361.072 744.866 360.752 744.637 360.615L741.251 358.65C741.022 358.513 740.45 358.627 740.015 358.878L727.796 365.917C727.361 366.168 727.178 366.488 727.43 366.625L730.794 368.568Z" fill="#DFDFDF"/>
<path d="M774.911 350.354C775.208 350.514 775.803 350.446 776.238 350.194L855.777 304.352C856.211 304.101 856.349 303.758 856.051 303.575L846.532 298.09C846.258 297.93 845.64 297.999 845.205 298.25L765.666 344.093C765.231 344.344 765.094 344.687 765.391 344.87L774.911 350.354Z" fill="#DFDFDF"/>
<path d="M861.177 298.89C861.2 298.89 861.246 298.89 861.314 298.844L870.65 293.451C870.696 293.428 870.719 293.382 870.719 293.382L870.124 293.04C870.101 293.04 870.055 293.04 869.987 293.085L860.651 298.479C860.605 298.502 860.582 298.547 860.582 298.547L861.177 298.89Z" fill="#DFDFDF"/>
<path d="M885.112 284.059C885.135 284.059 885.158 284.059 885.181 284.059L889.14 281.773C889.162 281.751 889.162 281.751 889.14 281.728L888.545 281.385C888.522 281.385 888.499 281.385 888.476 281.385L884.517 283.67C884.494 283.693 884.494 283.693 884.517 283.716L885.112 284.059Z" fill="#DFDFDF"/>
<path d="M829.668 304.329C829.966 304.489 830.561 304.421 830.995 304.169L843.214 297.13C843.649 296.879 843.786 296.536 843.489 296.353L835.389 291.691C835.091 291.531 834.496 291.6 834.062 291.851L821.842 298.89C821.408 299.141 821.293 299.484 821.568 299.667L829.668 304.329Z" fill="#DFDFDF"/>
<path d="M812.85 314.019C813.147 314.178 813.742 314.11 814.177 313.859L826.396 306.82C826.831 306.569 826.968 306.226 826.671 306.043L818.57 301.381C818.273 301.221 817.678 301.29 817.243 301.541L805.024 308.58C804.589 308.831 804.475 309.174 804.749 309.334L812.85 314.019Z" fill="#DFDFDF"/>
<path d="M796.008 323.708C796.306 323.868 796.901 323.799 797.335 323.548L809.555 316.51C809.989 316.258 810.104 315.915 809.829 315.755L801.729 311.094C801.431 310.934 800.836 311.002 800.402 311.253L788.182 318.292C787.748 318.543 787.633 318.886 787.908 319.046L796.008 323.708Z" fill="#DFDFDF"/>
<path d="M779.19 333.42C779.487 333.58 780.082 333.512 780.517 333.261L792.736 326.222C793.171 325.97 793.308 325.628 793.011 325.445L784.91 320.783C784.613 320.623 784.018 320.691 783.583 320.943L771.364 327.982C770.929 328.233 770.815 328.576 771.089 328.736L779.19 333.42Z" fill="#DFDFDF"/>
<path d="M762.348 343.11C762.646 343.27 763.241 343.201 763.675 342.95L775.895 335.911C776.329 335.66 776.444 335.317 776.169 335.157L768.069 330.495C767.771 330.335 767.176 330.404 766.742 330.655L754.522 337.694C754.088 337.945 753.95 338.288 754.248 338.471L762.348 343.11Z" fill="#DFDFDF"/>
<path d="M745.507 352.799C745.804 352.959 746.399 352.891 746.834 352.639L759.053 345.601C759.488 345.35 759.625 345.007 759.328 344.824L751.228 340.162C750.93 340.002 750.335 340.071 749.9 340.322L737.681 347.361C737.246 347.612 737.132 347.955 737.406 348.138L745.507 352.799Z" fill="#DFDFDF"/>
<path d="M707.614 374.647C707.911 374.807 708.506 374.738 708.941 374.487L742.235 355.29C742.67 355.039 742.784 354.696 742.509 354.536L734.409 349.874C734.112 349.714 733.517 349.783 733.082 350.034L699.788 369.231C699.353 369.482 699.239 369.825 699.513 370.008L707.614 374.647Z" fill="#DFDFDF"/>
<path d="M810.287 301.678C810.584 301.838 811.156 301.769 811.614 301.518L823.833 294.479C824.268 294.228 824.405 293.885 824.108 293.725L816.008 289.041C815.71 288.881 815.115 288.949 814.68 289.201L802.461 296.239C802.026 296.491 801.912 296.833 802.187 296.993L810.287 301.678Z" fill="#DFDFDF"/>
<path d="M793.445 312.327C793.743 312.487 794.338 312.419 794.773 312.167L806.992 305.129C807.426 304.877 807.541 304.535 807.266 304.375L799.166 299.69C798.868 299.53 798.274 299.599 797.839 299.85L785.62 306.889C785.185 307.14 785.07 307.483 785.345 307.643L793.445 312.327Z" fill="#DFDFDF"/>
<path d="M776.627 322.04C776.924 322.2 777.519 322.131 777.954 321.88L790.173 314.841C790.608 314.59 790.745 314.247 790.448 314.064L782.347 309.379C782.05 309.219 781.455 309.288 781.02 309.539L768.801 316.578C768.366 316.829 768.252 317.172 768.526 317.332L776.627 322.04Z" fill="#DFDFDF"/>
<path d="M759.785 331.729C760.083 331.889 760.678 331.821 761.113 331.569L773.332 324.531C773.767 324.279 773.904 323.937 773.606 323.777L765.506 319.092C765.209 318.932 764.614 319 764.179 319.252L751.96 326.29C751.525 326.542 751.411 326.885 751.685 327.045L759.785 331.729Z" fill="#DFDFDF"/>
<path d="M742.944 341.419C743.242 341.579 743.837 341.51 744.271 341.259L756.491 334.22C756.925 333.969 757.063 333.626 756.765 333.466L748.665 328.781C748.367 328.621 747.795 328.69 747.338 328.941L735.118 335.98C734.683 336.231 734.569 336.574 734.844 336.734L742.944 341.419Z" fill="#DFDFDF"/>
<path d="M726.125 351.131C726.423 351.291 727.018 351.223 727.453 350.971L739.672 343.933C740.107 343.681 740.244 343.338 739.946 343.156L731.846 338.471C731.549 338.311 730.954 338.379 730.519 338.631L718.3 345.669C717.865 345.921 717.751 346.264 718.025 346.424L726.125 351.131Z" fill="#DFDFDF"/>
<path d="M709.307 360.821C709.605 360.981 710.2 360.912 710.634 360.661L722.854 353.622C723.288 353.371 723.403 353.028 723.128 352.868L715.028 348.183C714.73 348.023 714.158 348.092 713.701 348.343L701.481 355.382C701.046 355.633 700.932 355.976 701.207 356.136L709.307 360.821Z" fill="#DFDFDF"/>
<path d="M803.102 293.908C803.399 294.068 803.994 294 804.429 293.748L816.648 286.71C817.083 286.458 817.197 286.115 816.9 285.955L808.8 281.294C808.502 281.134 807.907 281.202 807.472 281.453L795.253 288.492C794.818 288.744 794.704 289.086 794.979 289.246L803.102 293.908Z" fill="#DFDFDF"/>
<path d="M786.283 303.598C786.581 303.758 787.176 303.689 787.61 303.438L799.829 296.399C800.264 296.148 800.402 295.805 800.104 295.622L792.004 290.96C791.706 290.8 791.111 290.869 790.677 291.12L778.457 298.159C778.023 298.41 777.908 298.753 778.183 298.913L786.283 303.598Z" fill="#DFDFDF"/>
<path d="M769.442 313.287C769.739 313.447 770.334 313.379 770.769 313.127L782.988 306.089C783.423 305.837 783.537 305.495 783.24 305.335L775.139 300.673C774.842 300.513 774.247 300.581 773.812 300.833L761.593 307.871C761.158 308.123 761.021 308.465 761.318 308.625L769.442 313.287Z" fill="#DFDFDF"/>
<path d="M752.623 323C752.921 323.16 753.516 323.114 753.951 322.84L766.17 315.801C766.604 315.55 766.742 315.207 766.444 315.024L758.344 310.362C758.046 310.202 757.452 310.271 757.017 310.522L744.798 317.561C744.363 317.812 744.248 318.155 744.523 318.315L752.623 323Z" fill="#DFDFDF"/>
<path d="M735.782 332.689C736.079 332.849 736.674 332.781 737.109 332.552L749.328 325.513C749.763 325.262 749.877 324.919 749.603 324.736L741.502 320.075C741.205 319.915 740.633 319.983 740.175 320.235L727.956 327.273C727.521 327.525 727.407 327.867 727.682 328.027L735.782 332.689Z" fill="#DFDFDF"/>
<path d="M718.963 342.402C719.261 342.562 719.856 342.493 720.29 342.242L732.51 335.203C732.944 334.952 733.059 334.609 732.761 334.426L724.684 329.764C724.386 329.604 723.791 329.673 723.357 329.924L711.137 336.963C710.703 337.214 710.565 337.557 710.863 337.74L718.963 342.402Z" fill="#DFDFDF"/>
<path d="M702.122 352.091C702.419 352.251 703.014 352.182 703.449 351.931L715.668 344.892C716.103 344.641 716.217 344.298 715.943 344.115L707.843 339.454C707.545 339.294 706.95 339.362 706.515 339.614L694.296 346.652C693.862 346.904 693.747 347.246 694.022 347.406L702.122 352.091Z" fill="#DFDFDF"/>
<path d="M836.693 274.552C836.99 274.712 837.585 274.643 838.02 274.392L858.751 262.44C859.186 262.189 859.324 261.846 859.026 261.663L850.926 257.001C850.628 256.841 850.033 256.91 849.599 257.161L828.867 269.113C828.432 269.364 828.295 269.707 828.593 269.867L836.693 274.552Z" fill="#DFDFDF"/>
<path d="M674.16 355.359C674.457 355.519 675.052 355.451 675.487 355.199L696.218 343.247C696.653 342.996 696.767 342.653 696.493 342.493L688.392 337.831C688.095 337.671 687.5 337.74 687.065 337.991L666.334 349.943C665.899 350.194 665.762 350.537 666.059 350.72L674.16 355.359Z" fill="#DFDFDF"/>
<path d="M843.855 283.282C844.153 283.442 844.748 283.373 845.183 283.122L869.896 268.885C870.33 268.633 870.468 268.29 870.17 268.13L862.07 263.446C861.772 263.286 861.177 263.354 860.743 263.606L836.03 277.843C835.595 278.094 835.48 278.437 835.755 278.597L843.855 283.282Z" fill="#DFDFDF"/>
<path d="M863.237 284.973C863.534 285.133 864.129 285.064 864.564 284.813L881.039 275.329C881.474 275.078 881.588 274.735 881.314 274.552L873.213 269.89C872.916 269.73 872.321 269.799 871.886 270.05L855.411 279.534C854.976 279.785 854.862 280.128 855.136 280.311L863.237 284.973Z" fill="#DFDFDF"/>
<path d="M817.22 272.906C817.518 273.066 818.113 272.998 818.548 272.747L830.767 265.708C831.202 265.457 831.339 265.114 831.041 264.931L822.941 260.269C822.644 260.109 822.049 260.178 821.614 260.429L809.395 267.468C808.96 267.719 808.823 268.062 809.12 268.245L817.22 272.906Z" fill="#DFDFDF"/>
<path d="M800.448 282.573C800.745 282.733 801.34 282.665 801.775 282.413L813.994 275.375C814.429 275.123 814.543 274.781 814.269 274.598L806.168 269.936C805.871 269.776 805.276 269.844 804.841 270.096L792.622 277.134C792.187 277.386 792.05 277.729 792.347 277.911L800.448 282.573Z" fill="#DFDFDF"/>
<path d="M783.629 292.263C783.927 292.423 784.522 292.377 784.956 292.103L797.176 285.064C797.61 284.813 797.725 284.47 797.45 284.31L789.35 279.648C789.052 279.488 788.457 279.557 788.023 279.808L775.803 286.847C775.369 287.098 775.254 287.441 775.529 287.601L783.629 292.263Z" fill="#DFDFDF"/>
<path d="M766.81 301.952C767.108 302.112 767.703 302.044 768.138 301.792L780.357 294.754C780.791 294.502 780.929 294.16 780.631 293.977L772.531 289.315C772.233 289.155 771.639 289.223 771.204 289.475L758.985 296.513C758.55 296.765 758.413 297.108 758.71 297.29L766.81 301.952Z" fill="#DFDFDF"/>
<path d="M749.969 311.665C750.267 311.825 750.839 311.779 751.296 311.505L763.515 304.466C763.95 304.215 764.087 303.872 763.79 303.689L755.69 299.027C755.392 298.867 754.797 298.936 754.363 299.187L742.143 306.226C741.709 306.477 741.594 306.82 741.892 306.98L749.969 311.665Z" fill="#DFDFDF"/>
<path d="M733.128 321.354C733.425 321.514 734.02 321.446 734.455 321.194L746.674 314.156C747.109 313.904 747.223 313.561 746.926 313.401L738.825 308.74C738.528 308.58 737.933 308.648 737.498 308.9L725.279 315.938C724.844 316.19 724.73 316.532 725.004 316.692L733.128 321.354Z" fill="#DFDFDF"/>
<path d="M716.309 331.067C716.607 331.227 717.202 331.158 717.637 330.907L729.856 323.868C730.29 323.617 730.428 323.274 730.13 323.091L722.03 318.429C721.732 318.269 721.138 318.338 720.703 318.589L708.484 325.628C708.049 325.879 707.912 326.222 708.209 326.405L716.309 331.067Z" fill="#DFDFDF"/>
<path d="M699.49 340.756C699.788 340.916 700.383 340.848 700.817 340.596L713.059 333.558C713.494 333.306 713.609 332.963 713.311 332.803L705.211 328.141C704.913 327.982 704.318 328.05 703.884 328.301L691.641 335.34C691.207 335.591 691.092 335.934 691.39 336.094L699.49 340.756Z" fill="#DFDFDF"/>
<path d="M689.697 349.303C689.903 349.189 690.154 349.097 690.406 349.075C690.658 349.052 690.864 349.075 691.001 349.166L699.101 353.828C699.239 353.896 699.307 354.034 699.239 354.171C699.193 354.331 699.033 354.468 698.827 354.582L695.646 356.41L706.264 362.535C706.401 362.603 706.447 362.74 706.401 362.878C706.355 363.037 706.195 363.175 705.989 363.289L697.751 368.042C697.545 368.156 697.294 368.248 697.042 368.271C696.79 368.294 696.561 368.271 696.424 368.202L677.18 357.096C677.043 357.027 676.997 356.89 677.043 356.753C677.088 356.593 677.249 356.456 677.455 356.342L689.697 349.303Z" fill="#DFDFDF"/>
<path d="M865.434 281.042C865.456 281.042 865.502 281.042 865.571 280.996L874.907 275.603C874.952 275.58 874.975 275.535 874.975 275.535L874.38 275.192C874.357 275.192 874.312 275.192 874.243 275.238L864.907 280.631C864.862 280.654 864.839 280.699 864.839 280.699L865.434 281.042Z" fill="#DFDFDF"/>
<path d="M816.694 359.153L860.834 334.426C861.337 334.129 861.337 333.649 860.811 333.352L842.047 322.565C841.521 322.268 840.674 322.246 840.171 322.543L796.031 347.269C795.528 347.566 795.528 348.046 796.054 348.343L814.817 359.13C815.344 359.427 816.19 359.427 816.694 359.153Z" fill="#DFDFDF"/>
<path d="M652.444 309.494L814.566 216.003C817.243 214.45 818.936 210.29 818.342 206.68L804.246 120.319C803.651 116.709 801.02 115.063 798.342 116.594L636.221 210.085C633.543 211.639 631.85 215.798 632.445 219.409L646.541 305.769C647.113 309.357 649.767 311.025 652.444 309.494Z" fill="#FFFAFA"/>
<path d="M634.024 229.052L632.308 218.494C631.804 215.386 633.909 211.433 637.021 209.627L797.564 117.051C800.676 115.246 803.605 116.32 804.108 119.405L805.825 129.963L634.024 229.052Z" fill="#7C7C7C"/>
<path d="M665.83 202.223C666.128 203.526 667.272 204.074 668.393 203.412C669.514 202.772 670.178 201.195 669.88 199.892C669.583 198.59 668.439 198.041 667.318 198.704C666.219 199.344 665.556 200.921 665.83 202.223Z" fill="white"/>
<path d="M657.662 206.931C657.959 208.234 659.103 208.782 660.224 208.119C661.345 207.479 662.009 205.903 661.712 204.6C661.414 203.297 660.27 202.749 659.149 203.412C658.05 204.051 657.387 205.628 657.662 206.931Z" fill="white"/>
<path d="M653.385 211.126C653.904 209.716 653.488 208.266 652.456 207.887C651.424 207.508 650.167 208.344 649.648 209.754C649.129 211.163 649.545 212.613 650.577 212.992C651.609 213.371 652.866 212.536 653.385 211.126Z" fill="white"/>
<path d="M1165.17 342.356L1167 555H782.324L1165.17 342.356Z" fill="#F8F8F8"/>
<path d="M1164.55 315.71L1159.95 372.361L857.928 555H779.167L1164.55 315.71Z" fill="#EAEAEA"/>
<path d="M772.554 169.338L776.421 172.606L780.174 163.465" stroke="white" stroke-width="2.9823" stroke-miterlimit="10" stroke-linecap="round" stroke-linejoin="round"/>
<path opacity="0.34" d="M839.484 303.849C839.873 301.404 844.793 299.416 851.223 297.885C849.004 297.176 847.425 295.759 847.127 293.268C847.127 293.268 850.971 291.989 855.777 290.777C854.816 289.978 854.198 288.858 854.015 287.372C854.015 287.372 866.348 283.259 874.403 282.916C877.195 282.665 883.556 282.413 891.313 284.333C899.116 286.275 901.77 289.566 919.069 300.078L1010.37 320.326L998.357 364.957L908.04 325.559L896.782 326.976L875.616 321.743C875.616 321.743 863.717 322.588 863.008 317.629C862.207 312.099 876.119 314.361 876.119 314.361L886.348 315.71C889.276 315.687 890.604 315.733 891.084 312.922C891.382 311.253 889.254 310.111 889.185 309.791C889.025 309.06 864.449 304.923 864.449 304.923C864.449 304.923 837.906 313.607 839.484 303.849Z" fill="#DFDFDF"/>
<path opacity="0.34" d="M873.831 450.495C821.407 444.05 728.894 383.445 728.894 383.445L755.049 362.101L866.211 410.023L873.831 450.495Z" fill="#DFDFDF"/>
<path d="M931.518 438.543C918.658 449.992 914.836 457.51 895.981 455.042C871.429 451.82 789.144 406.595 767.566 389.684C759.122 383.056 765.804 361.369 775.849 365.277C799.83 374.624 868.683 404.218 891.199 407.692C893.167 407.989 912.068 406.595 912.983 406.069C914.722 405.109 949.32 422.706 931.518 438.543Z" fill="#FCE0E0"/>
<path d="M1065.4 272.632L1033.78 214.267C1029.29 201.629 1024.88 191.483 1012.25 195.984L1008.49 197.31C995.84 201.789 983.094 216.141 987.579 228.778L1013.21 290.892C1017.72 303.506 1069.89 285.27 1065.4 272.632Z" fill="#FCE0E0"/>
<path d="M864.449 289.84C864.449 289.84 837.906 298.547 839.484 288.789C839.873 286.344 844.793 284.356 851.223 282.825C849.004 282.116 847.425 280.699 847.127 278.208C847.127 278.208 850.971 276.929 855.777 275.717C854.816 274.918 854.198 273.798 854.015 272.312C854.015 272.312 866.348 268.199 874.403 267.856C877.195 267.605 883.556 267.353 891.313 269.273C899.299 271.261 901.908 274.666 920.397 285.795C920.397 285.795 919.71 286.413 918.635 287.281C922.067 288.949 924.218 292.583 923.898 296.513L923.852 296.97C923.28 303.758 918.04 309.22 911.289 310.065L896.736 311.893L875.57 306.66C875.57 306.66 863.671 307.506 862.962 302.547C862.161 297.016 876.073 299.279 876.073 299.279L886.302 300.627C889.231 300.604 890.558 300.65 891.039 297.839C891.336 296.171 889.208 295.028 889.139 294.708C889.025 293.954 864.449 289.84 864.449 289.84Z" fill="#FCE0E0"/>
<path d="M851.223 282.802L865.891 279.145L891.221 286.984" stroke="#F2C8C8" stroke-width="3.6829" stroke-miterlimit="10"/>
<path d="M855.777 275.717C856.623 275.009 870.65 271.398 870.65 271.398L895.981 279.237" stroke="#F2C8C8" stroke-width="3.6829" stroke-miterlimit="10"/>
<path d="M919.092 285.018L1010.39 305.266L998.357 349.875L905.065 309.174L919.092 285.018Z" fill="#FCE0E0"/>
<path d="M976.779 302.135C989.364 296.491 1000.14 289.863 1010.07 282.87C1067.14 276.357 1063.94 249.323 1063.94 249.323C1090.78 238.719 1110.37 256.75 1124.85 297.93C1131.74 317.515 1150.07 411.531 1150.07 411.531C1150.07 411.554 1161.23 539.186 1149.88 543.231L994.65 552.623C994.65 552.623 999.318 505.455 996.366 472.113C994.856 454.974 972.156 415.005 965.452 403.83C964.994 403.075 957.923 414.57 957.695 413.976C953.484 403.03 954.674 392.152 960.166 380.725C949.686 358.193 938.634 319.275 976.779 302.135Z" fill="#EEEEEE"/>
<path d="M1010.62 363.54L934.286 439.48C909.573 457.556 876.554 416.947 895.707 400.402L957.718 315.71C969.525 301.244 992.293 300.947 1001.81 311.573C1011.74 322.634 1022.09 350.948 1010.62 363.54Z" fill="#EEEEEE"/>
<path d="M723.677 329.17C723.609 329.238 722.213 330.884 722.991 333.329C722.991 333.352 722.991 333.375 723.014 333.375C724.432 337.762 731.686 341.602 744.615 344.847C745.049 345.052 746.514 346.104 748.527 347.566C744.134 346.812 738.894 347.338 735.279 349.12C720.931 356.205 715.851 362.261 715.645 362.512L715.371 362.855L715.44 363.289C715.462 363.449 715.737 364.934 717.545 365.757C721.046 367.357 727.659 365.117 737.178 359.13C739.741 357.53 743.036 357.324 747.017 358.513C744.386 358.193 741.823 358.604 739.741 359.678C733.242 363.083 721.229 373.001 720.725 373.435L720.245 373.824L720.382 374.418C720.405 374.578 720.794 375.904 722.51 376.566C723.105 376.795 723.792 376.909 724.57 376.932C724.364 377.046 724.249 377.115 724.249 377.115L723.38 377.618L723.906 378.486C727.75 384.885 734.844 381 740.038 378.166C740.702 377.8 741.365 377.435 741.983 377.115C744.409 375.835 748.116 374.921 750.518 376.543C757.177 381.023 761.753 384.77 763.401 387.124C763.813 387.696 768.183 391.74 768.755 392.38C779.693 404.424 794.59 390.872 791.134 374.738C778.206 362.055 762.371 340.756 752.097 337.762L751.96 337.671L724.112 328.599L723.677 329.17Z" fill="#FCE0E0"/>
<path d="M725.783 376.543L747.612 365.209L758.87 371.219" stroke="#F2C8C8" stroke-width="3.6829" stroke-miterlimit="10"/>
<path d="M746.971 358.536L755.049 362.101" stroke="#F2C8C8" stroke-width="3.6829" stroke-miterlimit="10"/>
<path d="M989.021 296.079C1038.95 286.161 1069.68 319.457 1074.05 246.649C1074.05 246.649 1060.39 245.278 1056.18 252.591C1048.81 265.434 1048.29 272.495 1027.51 272.335C1016.75 272.267 1002.98 271.764 999.844 277.043L989.021 296.079Z" fill="white"/>
<path d="M958.999 414.456L934.286 439.023C925.316 445.581 915.248 444.416 906.988 439.457C923.944 438.314 932.364 426.842 951.951 407.852C955.132 404.789 958.999 414.456 958.999 414.456Z" fill="#D9D9D9"/>
<path d="M954.331 155.695C954.331 155.695 943.142 169.567 945.979 184.878C946.528 187.803 948.038 195.047 948.862 198.407C950.807 206.428 948.862 206.862 946.482 214.975C946.208 215.889 944.217 218.86 941.906 224.733C941.494 225.761 941.517 226.927 941.975 227.955C942.936 230.126 945.224 233.349 950.533 232.549C952.844 232.206 953.278 235.748 954.514 240.821C956.459 248.843 959.891 257.001 964.262 259.675C972.66 264.84 1001.95 254.167 1001.95 254.167L1010.48 201.72L954.331 155.695Z" fill="#FCE0E0"/>
<path d="M1003.85 268.108C1003.85 268.108 1008.81 254.419 1006.27 248.134C1004.38 251.265 1002.02 254.007 998.7 255.676L1003.85 268.108Z" fill="#F2C8C8"/>
<path d="M967.123 408.674C967.123 408.674 993.643 453.923 995.314 467.063C996.984 480.203 994.696 552.623 994.696 552.623L1010.42 552.509L1032.75 484.66L996.732 376.498C994.49 369.756 985.085 379.949 979.822 384.748L950.693 408.949L958.999 414.479L967.123 408.674Z" fill="#D9D9D9"/>
<path d="M955.613 227.293C955.613 227.293 956.116 230.126 953.897 231.909" stroke="#F2C8C8" stroke-width="3.9584" stroke-miterlimit="10" stroke-linecap="round" stroke-linejoin="round"/>
<path d="M997.075 374.098C997.075 374.098 1029.55 329.513 989.021 297.93" stroke="#D9D9D9" stroke-width="4.8571" stroke-miterlimit="10" stroke-linecap="round" stroke-linejoin="round"/>
<path d="M1037.9 226.493C1042.41 225.03 1045.56 220.963 1045.81 216.232C1046.57 202.406 1046.96 173.566 1038.86 155.627C1027.9 131.357 967.466 165.248 967.466 165.248L1006.57 228.115C1007.21 229.144 1008.33 230.172 1009.71 231.063C1015.45 234.857 1022.91 234.925 1028.93 231.543L1037.9 226.493Z" fill="#2B2B2B"/>
<path d="M946.757 189.037C946.895 190.614 925.912 149.959 967.672 133.917C1034.69 108.185 1041.03 163.602 1041.03 163.602C1041.03 163.602 1015.95 187.598 979.525 174.48C970.875 181.404 952.203 182.021 946.78 177.565C946.803 177.565 946.002 180.056 946.757 189.037Z" fill="#2B2B2B"/>
<path d="M1004.09 224.099C1009.71 223.618 1013.69 216.642 1013 208.519C1012.3 200.396 1007.18 194.201 1001.56 194.683C995.949 195.164 991.962 202.139 992.661 210.262C993.359 218.385 998.477 224.58 1004.09 224.099Z" fill="#FCE0E0"/>
<path d="M1019.34 513.477L995.726 507.992L995.657 471.702L886.851 537.495L952.249 555H1010.39L1019.34 513.477Z" fill="#2A2A2A"/>
<path d="M1074.6 515.122C1040.9 521.315 1006.66 528.194 988.357 515.122C979.937 509.477 987.007 502.69 992.591 505.547C1015.77 514.322 1043.09 508.449 1074.58 504.107C1077.32 504.107 1079.57 506.347 1079.57 509.089V510.117C1079.59 512.905 1077.35 515.122 1074.6 515.122Z" fill="black"/>
<path d="M939.915 433.789C939.915 433.789 908.978 409.931 905.065 395.054C901.175 380.177 890.992 397.065 890.992 397.065C890.992 397.065 883.144 418.661 894.471 430.636C905.82 442.611 918.543 463.429 939.915 433.789Z" fill="#D9D9D9"/>
<path opacity="0.34" d="M765.117 506.187L798.274 487.082C800.356 485.871 800.104 483.745 797.679 482.351L734.912 446.153C732.487 444.759 728.803 444.599 726.72 445.81L693.564 464.915C691.482 466.126 691.733 468.251 694.159 469.645L756.925 505.844C759.351 507.238 763.035 507.375 765.117 506.187Z" fill="#D7D7D7"/>
<path d="M685.532 467.886V467.84V467.817L685.669 464.846L688.003 465.235L720.107 446.724C722.19 445.513 725.896 445.673 728.299 447.067L789.692 482.466L793.216 483.06L793.079 485.939C793.079 486.716 792.621 487.447 791.683 487.996L758.527 507.101C756.444 508.312 752.737 508.152 750.335 506.758L687.569 470.559C686.196 469.828 685.509 468.823 685.532 467.886Z" fill="#FFFAFA"/>
<path d="M758.617 504.244L791.774 485.139C793.856 483.928 793.604 481.803 791.179 480.409L728.412 444.21C725.987 442.816 722.303 442.656 720.22 443.867L687.064 462.972C684.981 464.184 685.233 466.309 687.659 467.703L750.425 503.902C752.851 505.296 756.535 505.456 758.617 504.244Z" fill="black"/>
<path d="M750.152 503.764L791.477 480.592L727.956 443.982L687.203 467.429L750.152 503.764Z" fill="#2B2B2B"/>
<path opacity="0.34" d="M634.115 534.501L621.965 527.485L612.904 522.252C611.004 521.155 606.748 520.538 603.224 522.572C601.028 523.852 600.684 525.383 600.684 526.183C600.684 527.44 601.439 528.651 602.675 529.359L617.091 537.678C617.251 537.769 617.434 537.815 617.617 537.815C617.983 537.815 618.327 537.632 618.51 537.289C618.807 536.786 618.624 536.147 618.121 535.872L603.705 527.554C603.11 527.211 602.767 526.686 602.767 526.183C602.767 525.566 603.293 524.926 604.254 524.377C607.023 522.778 610.432 523.235 611.851 524.057L613.453 524.994C612.629 525.177 611.828 525.452 611.119 525.863C609.792 526.64 609.014 527.737 609.014 528.879C609.014 529.908 609.586 530.799 610.661 531.393L626.107 540.306C627.022 540.831 628.212 541.083 629.447 541.083C630.912 541.083 632.422 540.717 633.635 540.032C634.962 539.255 635.74 538.158 635.74 537.015C635.74 536.009 635.168 535.095 634.115 534.501ZM632.605 538.226C631.026 539.14 628.486 539.254 627.159 538.5L611.714 529.588C611.485 529.451 611.119 529.199 611.119 528.857C611.119 528.582 611.393 528.102 612.171 527.645C612.743 527.325 613.43 527.097 614.139 526.983C614.231 527.12 614.345 527.257 614.505 527.325L628.166 535.21C628.326 535.301 628.509 535.347 628.692 535.347C629.058 535.347 629.402 535.164 629.585 534.821C629.676 534.661 629.722 534.501 629.722 534.341L633.086 536.284C633.315 536.421 633.681 536.672 633.681 537.015C633.658 537.289 633.383 537.792 632.605 538.226Z" fill="#00D254" fill-opacity="0.64"/>
<path d="M627.617 532.216C627.434 532.216 627.251 532.17 627.091 532.079L613.43 524.195C612.926 523.897 612.766 523.28 613.041 522.778C613.338 522.275 613.956 522.115 614.46 522.389L628.12 530.273C628.624 530.571 628.784 531.188 628.509 531.69C628.326 532.01 627.983 532.216 627.617 532.216Z" fill="#00D254" fill-opacity="0.64"/>
<path d="M628.418 537.929C627.182 537.929 625.992 537.678 625.077 537.152L609.631 528.24C608.579 527.622 607.984 526.731 607.984 525.726C607.984 524.583 608.762 523.486 610.089 522.709C612.331 521.407 615.626 521.292 617.617 522.435L633.063 531.348C634.116 531.965 634.71 532.856 634.71 533.861C634.71 535.004 633.932 536.101 632.605 536.878C631.392 537.586 629.859 537.929 628.418 537.929ZM614.299 523.738C613.201 523.738 612.011 524.012 611.141 524.515C610.363 524.972 610.089 525.451 610.089 525.726C610.089 526.046 610.455 526.32 610.684 526.457L626.13 535.37C627.457 536.124 629.997 536.009 631.576 535.095C632.354 534.638 632.628 534.158 632.628 533.884C632.628 533.564 632.262 533.29 632.033 533.153L616.588 524.24C615.993 523.897 615.169 523.738 614.299 523.738Z" fill="#00D254" fill-opacity="0.64"/>
<path d="M616.565 534.661C616.382 534.661 616.199 534.615 616.038 534.524L601.622 526.206C600.387 525.497 599.632 524.286 599.632 523.029C599.632 522.229 599.952 520.698 602.172 519.418C605.696 517.384 609.952 518.002 611.851 519.098L626.267 527.417C626.77 527.714 626.93 528.331 626.656 528.834C626.358 529.337 625.741 529.496 625.237 529.222L610.821 520.904C609.402 520.081 605.993 519.624 603.224 521.224C602.263 521.772 601.737 522.412 601.737 523.029C601.737 523.532 602.103 524.057 602.675 524.4L617.091 532.719C617.594 533.016 617.755 533.633 617.48 534.136C617.274 534.478 616.908 534.661 616.565 534.661Z" fill="#00D254" fill-opacity="0.64"/>
<path d="M631.484 482.877L714.936 434.772V429.882L597.687 367.174L514.258 410.411V415.279L631.484 482.877Z" fill="#2B2B2B"/>
<path d="M631.484 478.009L714.936 429.882L597.687 362.283L514.258 410.411L631.484 478.009Z" fill="#545454"/>
<path d="M542.472 534.615L628.509 485.002V479.975L507.622 415.324L421.584 459.887V464.938L542.472 534.615Z" fill="#2B2B2B"/>
<path d="M542.472 529.588L628.509 479.975L507.622 410.297L421.584 459.887L542.472 529.588Z" fill="#545454"/>
<path d="M510.139 419.671H513.457V417.454H510.139V419.671Z" fill="#DD4078"/>
<path d="M545.081 522.526C545.081 522.526 582.768 501.959 618.67 479.243C618.808 479.152 618.67 471.999 618.67 471.999C600.342 460.39 512.359 416.421 512.359 416.421L437.968 459.636L545.081 522.526Z" fill="#DDDDDD"/>
<path d="M545.081 515.282C545.081 515.282 582.768 494.715 618.67 471.999C619.814 471.154 512.359 409.2 512.359 409.2L437.968 452.414L545.081 515.282Z" fill="white"/>
<path d="M631.278 471.976C631.278 471.976 668.965 451.409 704.868 428.693C705.005 428.602 704.868 421.449 704.868 421.449C686.539 409.84 598.556 365.871 598.556 365.871L524.166 401.841V409.086L631.278 471.976Z" fill="#DDDDDD"/>
<path d="M631.278 464.755C631.278 464.755 668.965 444.187 704.868 421.472C706.012 420.626 598.556 358.673 598.556 358.673L524.166 401.887L631.278 464.755Z" fill="white"/>
<path d="M440.21 451.089L428.792 457.579L446.48 467.429L470.003 468.411L440.21 451.089Z" fill="#FFFAFA"/>
<path d="M470.689 452.871L513.548 428.168L504.006 422.66L461.147 447.364L470.689 452.871Z" stroke="#DEDEDE" stroke-width="2.7858" stroke-miterlimit="10" stroke-linecap="round" stroke-linejoin="round"/>
<path d="M546.728 502.21L553.913 498.074L546.774 493.96L539.589 498.097L546.728 502.21Z" stroke="#DEDEDE" stroke-width="2.7858" stroke-miterlimit="10" stroke-linecap="round" stroke-linejoin="round"/>
<path d="M583.865 472.616L550.709 491.447" stroke="#DEDEDE" stroke-width="2.7858" stroke-miterlimit="10" stroke-linecap="round" stroke-linejoin="round"/>
<path d="M575.148 484.797L556.156 495.56" stroke="#DEDEDE" stroke-width="2.7858" stroke-miterlimit="10" stroke-linecap="round" stroke-linejoin="round"/>
<path d="M534.189 494.875L541.351 490.715L534.234 486.602L527.049 490.761L534.189 494.875Z" stroke="#DEDEDE" stroke-width="2.7858" stroke-miterlimit="10" stroke-linecap="round" stroke-linejoin="round"/>
<path d="M571.327 465.28L538.171 484.088" stroke="#DEDEDE" stroke-width="2.7858" stroke-miterlimit="10" stroke-linecap="round" stroke-linejoin="round"/>
<path d="M562.609 477.461L543.616 488.224" stroke="#DEDEDE" stroke-width="2.7858" stroke-miterlimit="10" stroke-linecap="round" stroke-linejoin="round"/>
<path d="M521.649 487.516L528.811 483.38L521.672 479.266L514.51 483.403L521.649 487.516Z" stroke="#DEDEDE" stroke-width="2.7858" stroke-miterlimit="10" stroke-linecap="round" stroke-linejoin="round"/>
<path d="M558.764 457.945L525.608 476.752" stroke="#DEDEDE" stroke-width="2.7858" stroke-miterlimit="10" stroke-linecap="round" stroke-linejoin="round"/>
<path d="M550.046 470.125L531.077 480.889" stroke="#DEDEDE" stroke-width="2.7858" stroke-miterlimit="10" stroke-linecap="round" stroke-linejoin="round"/>
<path d="M509.086 480.18L516.271 476.044L509.132 471.931L501.97 476.067L509.086 480.18Z" stroke="#DEDEDE" stroke-width="2.7858" stroke-miterlimit="10" stroke-linecap="round" stroke-linejoin="round"/>
<path d="M546.224 450.609L513.068 469.417" stroke="#DEDEDE" stroke-width="2.7858" stroke-miterlimit="10" stroke-linecap="round" stroke-linejoin="round"/>
<path d="M537.506 462.767L518.537 473.553" stroke="#DEDEDE" stroke-width="2.7858" stroke-miterlimit="10" stroke-linecap="round" stroke-linejoin="round"/>
<path d="M496.547 472.845L503.732 468.708L496.593 464.595L489.408 468.731L496.547 472.845Z" stroke="#DEDEDE" stroke-width="2.7858" stroke-miterlimit="10" stroke-linecap="round" stroke-linejoin="round"/>
<path d="M533.685 443.273L500.529 462.081" stroke="#DEDEDE" stroke-width="2.7858" stroke-miterlimit="10" stroke-linecap="round" stroke-linejoin="round"/>
<path d="M524.967 455.431L505.998 466.195" stroke="#DEDEDE" stroke-width="2.7858" stroke-miterlimit="10" stroke-linecap="round" stroke-linejoin="round"/>
<path d="M484.007 465.509L491.193 461.373L484.053 457.259L476.868 461.395L484.007 465.509Z" stroke="#DEDEDE" stroke-width="2.7858" stroke-miterlimit="10" stroke-linecap="round" stroke-linejoin="round"/>
<path d="M521.146 435.915L487.989 454.745" stroke="#DEDEDE" stroke-width="2.7858" stroke-miterlimit="10" stroke-linecap="round" stroke-linejoin="round"/>
<path d="M512.427 448.095L493.435 458.859" stroke="#DEDEDE" stroke-width="2.7858" stroke-miterlimit="10" stroke-linecap="round" stroke-linejoin="round"/>
<path d="M558.375 401.682L598.854 378.326L589.838 373.138L549.359 396.494L558.375 401.682Z" stroke="#DEDEDE" stroke-width="2.7858" stroke-miterlimit="10" stroke-linecap="round" stroke-linejoin="round"/>
<path d="M573.111 410.297L613.59 386.942L604.574 381.731L564.095 405.087L573.111 410.297Z" stroke="#DEDEDE" stroke-width="2.7858" stroke-miterlimit="10" stroke-linecap="round" stroke-linejoin="round"/>
<path d="M587.847 418.889L628.349 395.534L619.333 390.346L578.831 413.702L587.847 418.889Z" stroke="#DEDEDE" stroke-width="2.7858" stroke-miterlimit="10" stroke-linecap="round" stroke-linejoin="round"/>
<path d="M602.584 427.505L643.085 404.15L634.07 398.939L593.568 422.295L602.584 427.505Z" stroke="#DEDEDE" stroke-width="2.7858" stroke-miterlimit="10" stroke-linecap="round" stroke-linejoin="round"/>
<path d="M617.32 436.098L657.821 412.742L648.806 407.555L608.304 430.91L617.32 436.098Z" stroke="#DEDEDE" stroke-width="2.7858" stroke-miterlimit="10" stroke-linecap="round" stroke-linejoin="round"/>
<path d="M632.056 444.713L672.558 421.358L663.542 416.147L623.04 439.503L632.056 444.713Z" stroke="#DEDEDE" stroke-width="2.7858" stroke-miterlimit="10" stroke-linecap="round" stroke-linejoin="round"/>
<path d="M615.764 452.666C616.825 452.666 617.686 452.185 617.686 451.592C617.686 450.998 616.825 450.518 615.764 450.518C614.702 450.518 613.841 450.998 613.841 451.592C613.841 452.185 614.702 452.666 615.764 452.666Z" fill="#EDE1E1"/>
<path d="M595.421 461.853C595.421 462.447 596.291 462.927 597.344 462.927C598.396 462.927 599.266 462.447 599.266 461.853C599.266 461.258 598.396 460.779 597.344 460.779C596.291 460.779 595.421 461.258 595.421 461.853Z" fill="#EDE1E1"/>
<path d="M615.764 451.249C615.764 445.421 611.645 443.068 606.565 446.016C601.485 448.941 597.367 456.048 597.367 461.875" stroke="#433878" stroke-width="2.7858" stroke-miterlimit="10" stroke-linecap="round" stroke-linejoin="round"/>
<path d="M598.076 441.948C598.076 442.542 598.945 443.022 599.998 443.022C601.051 443.022 601.92 442.542 601.92 441.948C601.92 441.354 601.051 440.874 599.998 440.874C598.923 440.874 598.076 441.354 598.076 441.948Z" fill="#EDE1E1"/>
<path d="M581.578 453.306C582.639 453.306 583.5 452.825 583.5 452.232C583.5 451.638 582.639 451.157 581.578 451.157C580.516 451.157 579.656 451.638 579.656 452.232C579.656 452.825 580.516 453.306 581.578 453.306Z" fill="#EDE1E1"/>
<path d="M599.998 441.605C599.998 435.778 595.879 433.424 590.799 436.372C585.719 439.297 581.601 446.404 581.601 452.231" stroke="#433878" stroke-width="2.7858" stroke-miterlimit="10" stroke-linecap="round" stroke-linejoin="round"/>
<path d="M584.209 433.378C585.271 433.378 586.131 432.897 586.131 432.304C586.131 431.711 585.271 431.23 584.209 431.23C583.148 431.23 582.287 431.711 582.287 432.304C582.287 432.897 583.148 433.378 584.209 433.378Z" fill="#EDE1E1"/>
<path d="M565.789 443.662C566.85 443.662 567.711 443.181 567.711 442.588C567.711 441.994 566.85 441.514 565.789 441.514C564.727 441.514 563.867 441.994 563.867 442.588C563.867 443.181 564.727 443.662 565.789 443.662Z" fill="#EDE1E1"/>
<path d="M584.209 431.961C584.209 426.134 580.09 423.78 575.01 426.728C569.93 429.653 565.812 436.76 565.812 442.588" stroke="#433878" stroke-width="2.7858" stroke-miterlimit="10" stroke-linecap="round" stroke-linejoin="round"/>
<path d="M568.008 423.871C569.07 423.871 569.93 423.39 569.93 422.797C569.93 422.204 569.07 421.723 568.008 421.723C566.947 421.723 566.086 422.204 566.086 422.797C566.086 423.39 566.947 423.871 568.008 423.871Z" fill="#EDE1E1"/>
<path d="M549.588 434.132C550.649 434.132 551.51 433.651 551.51 433.058C551.51 432.465 550.649 431.984 549.588 431.984C548.526 431.984 547.666 432.465 547.666 433.058C547.666 433.651 548.526 434.132 549.588 434.132Z" fill="#EDE1E1"/>
<path d="M568.008 422.432C568.008 416.604 563.889 414.25 558.809 417.198C553.729 420.146 549.611 427.231 549.611 433.058" stroke="#433878" stroke-width="2.7858" stroke-miterlimit="10" stroke-linecap="round" stroke-linejoin="round"/>
<path d="M552.105 414.639C553.167 414.639 554.027 414.158 554.027 413.565C554.027 412.972 553.167 412.491 552.105 412.491C551.043 412.491 550.183 412.972 550.183 413.565C550.183 414.158 551.043 414.639 552.105 414.639Z" fill="#EDE1E1"/>
<path d="M531.763 423.848C531.763 424.443 532.632 424.923 533.685 424.923C534.737 424.923 535.607 424.443 535.607 423.848C535.607 423.254 534.737 422.774 533.685 422.774C532.632 422.752 531.763 423.254 531.763 423.848Z" fill="#EDE1E1"/>
<path d="M552.105 413.222C552.105 407.395 547.986 405.041 542.906 407.989C537.826 410.914 533.708 418.021 533.708 423.848" stroke="#433878" stroke-width="2.7858" stroke-miterlimit="10" stroke-linecap="round" stroke-linejoin="round"/>
<path opacity="0.34" d="M664.961 399.899C665.075 400.516 665.029 401.11 664.869 401.636C664.869 401.658 664.869 401.658 664.869 401.681C664.503 402.87 663.519 403.738 662.261 403.829L660.911 403.944L588.03 409.68C587.618 409.703 587.184 409.657 586.795 409.52L578.122 408.446L572.768 407.532L577.527 406.115L585.605 402.733C585.948 402.55 586.337 402.413 586.772 402.39L655.876 396.951L660.979 396.539C661.322 396.517 661.666 396.539 661.986 396.631C662.215 396.677 662.421 396.768 662.627 396.859C662.833 396.951 663.039 397.065 663.222 397.202C663.405 397.339 663.588 397.499 663.771 397.659C663.862 397.751 663.931 397.842 664.022 397.933C664.503 398.459 664.846 399.145 664.961 399.899Z" fill="#727272"/>
<path d="M580.708 404.332C580.937 406.32 582.676 407.829 584.575 407.692L661.712 402.161C663.611 402.024 665.007 400.287 664.778 398.299C664.549 396.311 662.81 394.803 660.911 394.94L583.774 400.47C581.852 400.607 580.479 402.344 580.708 404.332Z" fill="#00AF46"/>
<path d="M580.708 404.332L664.778 398.299C664.549 396.311 662.81 394.803 660.911 394.94L583.774 400.47C581.852 400.607 580.479 402.344 580.708 404.332Z" fill="#00D254"/>
<path d="M584.575 407.692L574.415 406.458L573.958 404.127L582.539 400.813L585.124 401.567L583.889 403.441L585.65 404.904L584.323 406.092L586.177 406.892L584.575 407.692Z" fill="#D4B3B3"/>
<path d="M574.209 405.406L573.958 404.127L582.539 400.813L585.124 401.567L583.889 403.441L585.651 404.904L574.209 405.406Z" fill="#F7D1D2"/>
<path d="M568.924 405.521L574.415 406.458L573.958 404.127L568.924 405.521Z" fill="#56446B"/>
<path d="M664.755 398.299C664.983 400.287 663.588 402.024 661.688 402.161L656.357 402.55C656.769 400.745 656.86 398.208 655.556 395.328L660.865 394.94C662.81 394.803 664.549 396.311 664.755 398.299Z" fill="#7C64BA"/>
<path d="M654.687 402.664C654.687 402.664 655.968 398.711 653.451 395.465" stroke="#FFFAFA" stroke-width="1.8831" stroke-miterlimit="10" stroke-linecap="round" stroke-linejoin="round"/>
<path d="M1174.63 549.513L1014 549.215C1014.16 546.519 1014.66 542.977 1015.28 540.28L1044.66 416.259C1049.97 393.794 1066.19 371.33 1085.21 360.064L1174.61 307V549.513H1174.63Z" fill="#545454"/>
<path d="M1166.95 555H1053.34L1071.67 438.703C1079.68 404.881 1127.96 383.468 1156.61 366.511L1166.95 360.729C1167.05 362.101 1166.95 555 1166.95 555Z" fill="#2A2A2A"/>
<path d="M717.133 473.233L741.983 458.905C743.127 458.242 742.99 457.076 741.663 456.299L733.494 451.592C732.166 450.815 730.153 450.746 728.986 451.409L704.135 465.737C702.991 466.4 703.129 467.566 704.456 468.343L712.625 473.05C713.952 473.827 715.966 473.919 717.133 473.233Z" fill="white"/>
<path d="M714.071 470.452C717.168 470.435 719.67 468.969 719.66 467.176C719.65 465.384 717.132 463.945 714.036 463.962C710.94 463.979 708.438 465.445 708.448 467.237C708.458 469.029 710.975 470.469 714.071 470.452Z" fill="#D7D7D7"/>
<path d="M733.654 454.265L718.666 462.949" stroke="#D7D7D7" stroke-width="1.9227" stroke-miterlimit="10" stroke-linecap="round" stroke-linejoin="round"/>
<path d="M736.422 456.642L728.642 461.144" stroke="#D7D7D7" stroke-width="1.9227" stroke-miterlimit="10" stroke-linecap="round" stroke-linejoin="round"/>
<path d="M736.4 484.774L761.25 470.445C762.394 469.782 762.257 468.617 760.93 467.84L752.761 463.132C751.433 462.355 749.42 462.287 748.253 462.949L723.402 477.278C722.258 477.941 722.396 479.106 723.723 479.883L731.892 484.591C733.219 485.345 735.256 485.436 736.4 484.774Z" fill="#00C213"/>
<path d="M733.339 481.97C736.435 481.953 738.937 480.487 738.928 478.694C738.918 476.902 736.4 475.463 733.304 475.48C730.208 475.497 727.706 476.963 727.715 478.755C727.725 480.547 730.243 481.987 733.339 481.97Z" fill="white"/>
<path d="M752.944 465.806L737.956 474.49" stroke="white" stroke-width="1.9227" stroke-miterlimit="10" stroke-linecap="round" stroke-linejoin="round"/>
<path d="M755.713 468.16L747.91 472.685" stroke="white" stroke-width="1.9227" stroke-miterlimit="10" stroke-linecap="round" stroke-linejoin="round"/>
<path d="M755.689 496.314L780.54 481.986C781.684 481.323 781.547 480.157 780.219 479.38L772.05 474.673C770.723 473.896 768.71 473.827 767.543 474.49L742.692 488.819C741.548 489.481 741.685 490.647 743.013 491.424L751.182 496.131C752.509 496.886 754.522 496.977 755.689 496.314Z" fill="white"/>
<path d="M752.629 493.511C755.725 493.494 758.227 492.027 758.218 490.235C758.208 488.443 755.69 487.004 752.594 487.02C749.498 487.037 746.996 488.504 747.005 490.296C747.015 492.088 749.533 493.527 752.629 493.511Z" fill="#D7D7D7"/>
<path d="M772.211 477.324L757.223 486.008" stroke="#D7D7D7" stroke-width="1.9227" stroke-miterlimit="10" stroke-linecap="round" stroke-linejoin="round"/>
<path d="M774.979 479.7L767.199 484.202" stroke="#D7D7D7" stroke-width="1.9227" stroke-miterlimit="10" stroke-linecap="round" stroke-linejoin="round"/>
<path d="M1003.69 209.376C1004.4 212.553 1002.38 215.729 1000.74 216.095C999.112 216.46 1000.16 213.512 999.455 210.336C998.746 207.159 996.526 204.943 998.174 204.577C999.776 204.189 1002.98 206.177 1003.69 209.376Z" fill="#F2C8C8"/>
<path d="M992.431 209.925C992.431 209.925 992.225 201.812 995.702 198.384" stroke="#F2C8C8" stroke-width="3.9584" stroke-miterlimit="10" stroke-linecap="round" stroke-linejoin="round"/>
<path opacity="0.34" d="M757.749 237.759L725.141 256.955C716.08 262.28 707.362 257.847 705.737 247.083L703.678 233.463C702.053 222.699 708.14 209.536 717.201 204.211L749.809 185.015C758.87 179.69 767.588 184.124 769.213 194.888L771.272 208.508C772.897 219.271 766.81 232.434 757.749 237.759Z" fill="#DFDFDF"/>
<path d="M754.362 233.006L721.755 252.202C712.694 257.527 703.975 253.093 702.351 242.33L700.291 228.709C698.667 217.946 704.753 204.783 713.815 199.458L746.422 180.262C755.484 174.937 764.202 179.371 765.826 190.134L767.886 203.754C769.511 214.518 763.424 227.681 754.362 233.006Z" fill="#00D254"/>
<path d="M729.878 230.743L727.018 211.73C726.789 210.199 728.002 208.393 729.26 208.393L746.697 208.485C748.092 208.485 748.413 210.656 747.246 212.187L732.67 231.109C731.617 232.48 730.107 232.274 729.878 230.743Z" fill="white"/>
<path opacity="0.34" d="M701.664 234.057L689.33 241.324C681.985 245.643 677.065 256.293 678.37 265.022C679.674 273.729 686.745 277.34 694.09 273.021L706.424 265.754C706.721 265.571 707.041 265.365 707.339 265.182L707.224 265.297L714.982 265.937L712.922 259.492C716.377 254.419 718.231 247.837 717.384 242.078C716.08 233.326 709.009 229.738 701.664 234.057Z" fill="#DFDFDF"/>
<path opacity="0.34" d="M775.689 168.356L761.204 176.88C755.415 180.285 751.502 188.717 752.532 195.619L752.783 197.356C753.813 204.234 759.419 207.091 765.208 203.686L779.693 195.162C785.482 191.757 789.395 183.324 788.365 176.423L788.114 174.686C787.084 167.784 781.501 164.928 775.689 168.356Z" fill="#E3CFCF"/>
<path d="M702.373 266.393L690.04 273.661C682.695 277.98 675.624 274.392 674.32 265.662C673.015 256.955 677.935 246.283 685.28 241.964L697.614 234.697C704.959 230.378 712.03 233.966 713.334 242.695C714.638 251.402 709.718 262.074 702.373 266.393Z" fill="#C4C4C4"/>
<path d="M703.174 265.914L710.932 266.554L708.872 260.086L703.174 265.914Z" fill="#C4C4C4"/>
<path d="M688.265 258.675C688.93 257.106 688.611 255.471 687.552 255.023C686.493 254.575 685.095 255.484 684.43 257.053C683.764 258.622 684.083 260.257 685.142 260.705C686.201 261.153 687.599 260.244 688.265 258.675Z" fill="white"/>
<path d="M695.657 254.327C696.323 252.758 696.004 251.123 694.945 250.675C693.886 250.227 692.488 251.136 691.823 252.705C691.157 254.274 691.476 255.909 692.535 256.357C693.594 256.805 694.992 255.896 695.657 254.327Z" fill="white"/>
<path d="M703.06 249.959C703.726 248.39 703.407 246.755 702.348 246.307C701.289 245.859 699.891 246.767 699.225 248.336C698.56 249.905 698.879 251.54 699.938 251.988C700.997 252.436 702.395 251.528 703.06 249.959Z" fill="white"/>
<path d="M782.119 188.032L767.634 196.556C761.845 199.961 756.239 197.127 755.209 190.226L754.957 188.489C753.928 181.61 757.818 173.178 763.63 169.75L778.114 161.226C783.903 157.821 789.51 160.654 790.539 167.556L790.791 169.293C791.821 176.194 787.931 184.627 782.119 188.032Z" fill="#2B2B2B"/>
<path d="M759.9 178.456L782.828 164.951" stroke="#FFFAFA" stroke-width="2.4286" stroke-miterlimit="10" stroke-linecap="round" stroke-linejoin="round"/>
<path d="M760.861 184.969L783.812 171.464" stroke="#FFFAFA" stroke-width="2.4286" stroke-miterlimit="10" stroke-linecap="round" stroke-linejoin="round"/>
<path d="M761.845 191.505L777.656 182.204" stroke="#FFFAFA" stroke-width="2.4286" stroke-miterlimit="10" stroke-linecap="round" stroke-linejoin="round"/>
</g>
<defs>
<clipPath id="clip0_1_7">
<rect width="1167" height="555" fill="white"/>
</clipPath>
</defs>
</svg>
