<svg width="44" height="44" viewBox="0 0 44 44" fill="none" xmlns="http://www.w3.org/2000/svg">
<rect width="44" height="44" rx="22" fill="#01E45C"/>
<path d="M24.4435 28.7762L24.9052 28.3176C25.0494 28.1733 25.1289 27.9813 25.1289 27.7761C25.1289 27.571 25.0494 27.3787 24.9052 27.2344L19.6737 22.0031L24.911 16.7658C25.0552 16.6217 25.1346 16.4295 25.1346 16.2244C25.1346 16.0193 25.0552 15.8269 24.911 15.6827L24.4521 15.224C24.1537 14.9253 23.6675 14.9253 23.3691 15.224L17.111 21.4596C16.9669 21.6037 16.8654 21.7957 16.8654 22.0027L16.8654 22.0051C16.8654 22.2103 16.9671 22.4023 17.111 22.5464L23.3521 28.7762C23.4962 28.9206 23.694 28.9998 23.8992 29C24.1044 29 24.2995 28.9206 24.4435 28.7762Z" fill="white"/>
</svg>
