<svg width="31" height="33" viewBox="0 0 31 33" fill="none" xmlns="http://www.w3.org/2000/svg">
<g clip-path="url(#clip0_1_832)">
<path d="M27.7071 15.2929L20.7069 8.29273C20.3163 7.90225 19.6832 7.90237 19.2927 8.29296C19.1052 8.48047 18.9999 8.73465 18.9999 8.99979V11.9998H11.9997C11.4474 11.9998 10.9997 12.4476 10.9997 12.9999C10.9997 13.5522 11.4474 13.9999 11.9997 13.9999H19.9999C20.5522 13.9999 21 13.5522 21 12.9999V11.4138L25.586 15.9999L21 20.586V18.9999C21 18.4476 20.5522 17.9999 19.9999 17.9999H8.99969V14.9998C8.99957 14.4475 8.55173 13.9999 7.99948 14C7.73439 14.0001 7.48015 14.1054 7.29265 14.2928L0.292568 21.293C-0.0978483 21.6835 -0.0978483 22.3165 0.292568 22.707L7.29271 29.7071C7.48021 29.8947 7.73451 30.0001 7.99971 30.0001C8.13114 30.0005 8.26139 29.9747 8.38269 29.9241C8.75629 29.7692 8.99981 29.4046 8.99969 29.0001V26H15.9998C16.5521 26 16.9999 25.5523 16.9999 25C16.9999 24.4477 16.5521 24 15.9998 24H7.99971C7.4474 24 6.99967 24.4477 6.99967 25V26.5861L2.41358 22L6.99967 17.4139V18.9999C6.99967 19.5522 7.4474 19.9999 7.99971 19.9999H18.9999V23C19 23.5523 19.4478 23.9999 20.0001 23.9998C20.2652 23.9997 20.5194 23.8944 20.7069 23.707L27.7071 16.7069C28.0974 16.3163 28.0974 15.6833 27.7071 15.2929Z" fill="#2B2B2B"/>
</g>
<circle cx="23.5" cy="7.5" r="7.5" fill="#00D254"/>
<path d="M21.4 9.3C21.4867 9.36667 21.6 9.45 21.74 9.55C21.88 9.65 22.1333 9.78333 22.5 9.95C22.8667 10.11 23.1933 10.19 23.48 10.19C23.8467 10.19 24.1567 10.1 24.41 9.92C24.67 9.74 24.8 9.48667 24.8 9.16C24.8 8.78 24.65 8.49333 24.35 8.3C24.05 8.1 23.6433 8 23.13 8L22.62 8L22.62 7.1L23.13 7.1C23.61 7.1 23.9767 6.99667 24.23 6.79C24.49 6.58333 24.62 6.30667 24.62 5.96C24.62 5.68667 24.51 5.48333 24.29 5.35C24.07 5.21 23.8 5.14 23.48 5.14C23.1867 5.14 22.8733 5.21667 22.54 5.37C22.2133 5.52333 21.96 5.67333 21.78 5.82L21.5 6.05L21.7 4.83C21.72 4.81 21.7467 4.78667 21.78 4.76C21.8133 4.72667 21.89 4.67333 22.01 4.6C22.13 4.52 22.2567 4.45 22.39 4.39C22.5233 4.33 22.6967 4.27667 22.91 4.23C23.13 4.18333 23.3533 4.16 23.58 4.16C24.2733 4.16 24.8167 4.32333 25.21 4.65C25.61 4.97 25.81 5.39 25.81 5.91C25.81 6.32333 25.6867 6.66 25.44 6.92C25.1933 7.17333 24.9267 7.35667 24.64 7.47C24.7733 7.50333 24.91 7.55667 25.05 7.63C25.19 7.70333 25.3333 7.80667 25.48 7.94C25.6333 8.06667 25.7567 8.24 25.85 8.46C25.9433 8.68 25.99 8.93 25.99 9.21C25.99 9.78333 25.7733 10.2533 25.34 10.62C24.9067 10.9867 24.32 11.1733 23.58 11.18C23.1667 11.1867 22.7767 11.1367 22.41 11.03C22.05 10.9233 21.7933 10.8133 21.64 10.7L21.4 10.54L21.4 9.3Z" fill="white"/>
<defs>
<clipPath id="clip0_1_832">
<rect width="28" height="28" fill="white" transform="translate(0 5)"/>
</clipPath>
</defs>
</svg>
