<svg width="44" height="44" viewBox="0 0 44 44" fill="none" xmlns="http://www.w3.org/2000/svg">
<rect width="44" height="44" rx="22" transform="matrix(-1 0 0 1 44 0)" fill="#01E45C"/>
<path d="M19.5565 28.7762L19.0947 28.3176C18.9505 28.1733 18.871 27.9813 18.871 27.7761C18.871 27.571 18.9505 27.3787 19.0947 27.2344L24.3262 22.0031L19.0889 16.7658C18.9447 16.6217 18.8654 16.4295 18.8654 16.2244C18.8654 16.0193 18.9447 15.8269 19.0889 15.6827L19.5478 15.224C19.8463 14.9253 20.3324 14.9253 20.6309 15.224L26.8889 21.4596C27.033 21.6037 27.1345 21.7957 27.1345 22.0027L27.1345 22.0051C27.1345 22.2103 27.0329 22.4023 26.8889 22.5464L20.6478 28.7762C20.5037 28.9206 20.3059 28.9998 20.1008 29C19.8956 29 19.7005 28.9206 19.5565 28.7762Z" fill="white"/>
</svg>
